<svg width="22" height="25" viewBox="0 0 22 25" fill="none" xmlns="http://www.w3.org/2000/svg">
<path d="M2.44444 25C1.77222 25 1.19676 24.7552 0.718056 24.2656C0.239352 23.776 0 23.1875 0 22.5V5C0 4.3125 0.239352 3.72396 0.718056 3.23438C1.19676 2.74479 1.77222 2.5 2.44444 2.5H3.66667V0H6.11111V2.5H15.8889V0H18.3333V2.5H19.5556C20.2278 2.5 20.8032 2.74479 21.2819 3.23438C21.7606 3.72396 22 4.3125 22 5V22.5C22 23.1875 21.7606 23.776 21.2819 24.2656C20.8032 24.7552 20.2278 25 19.5556 25H2.44444ZM2.44444 22.5H19.5556V10H2.44444V22.5ZM2.44444 7.5H19.5556V5H2.44444V7.5ZM11 15C10.6537 15 10.3634 14.8802 10.1292 14.6406C9.89491 14.401 9.77778 14.1042 9.77778 13.75C9.77778 13.3958 9.89491 13.099 10.1292 12.8594C10.3634 12.6198 10.6537 12.5 11 12.5C11.3463 12.5 11.6366 12.6198 11.8708 12.8594C12.1051 13.099 12.2222 13.3958 12.2222 13.75C12.2222 14.1042 12.1051 14.401 11.8708 14.6406C11.6366 14.8802 11.3463 15 11 15ZM6.11111 15C5.76481 15 5.47454 14.8802 5.24028 14.6406C5.00602 14.401 4.88889 14.1042 4.88889 13.75C4.88889 13.3958 5.00602 13.099 5.24028 12.8594C5.47454 12.6198 5.76481 12.5 6.11111 12.5C6.45741 12.5 6.74769 12.6198 6.98194 12.8594C7.2162 13.099 7.33333 13.3958 7.33333 13.75C7.33333 14.1042 7.2162 14.401 6.98194 14.6406C6.74769 14.8802 6.45741 15 6.11111 15ZM15.8889 15C15.5426 15 15.2523 14.8802 15.0181 14.6406C14.7838 14.401 14.6667 14.1042 14.6667 13.75C14.6667 13.3958 14.7838 13.099 15.0181 12.8594C15.2523 12.6198 15.5426 12.5 15.8889 12.5C16.2352 12.5 16.5255 12.6198 16.7597 12.8594C16.994 13.099 17.1111 13.3958 17.1111 13.75C17.1111 14.1042 16.994 14.401 16.7597 14.6406C16.5255 14.8802 16.2352 15 15.8889 15ZM11 20C10.6537 20 10.3634 19.8802 10.1292 19.6406C9.89491 19.401 9.77778 19.1042 9.77778 18.75C9.77778 18.3958 9.89491 18.099 10.1292 17.8594C10.3634 17.6198 10.6537 17.5 11 17.5C11.3463 17.5 11.6366 17.6198 11.8708 17.8594C12.1051 18.099 12.2222 18.3958 12.2222 18.75C12.2222 19.1042 12.1051 19.401 11.8708 19.6406C11.6366 19.8802 11.3463 20 11 20ZM6.11111 20C5.76481 20 5.47454 19.8802 5.24028 19.6406C5.00602 19.401 4.88889 19.1042 4.88889 18.75C4.88889 18.3958 5.00602 18.099 5.24028 17.8594C5.47454 17.6198 5.76481 17.5 6.11111 17.5C6.45741 17.5 6.74769 17.6198 6.98194 17.8594C7.2162 18.099 7.33333 18.3958 7.33333 18.75C7.33333 19.1042 7.2162 19.401 6.98194 19.6406C6.74769 19.8802 6.45741 20 6.11111 20ZM15.8889 20C15.5426 20 15.2523 19.8802 15.0181 19.6406C14.7838 19.401 14.6667 19.1042 14.6667 18.75C14.6667 18.3958 14.7838 18.099 15.0181 17.8594C15.2523 17.6198 15.5426 17.5 15.8889 17.5C16.2352 17.5 16.5255 17.6198 16.7597 17.8594C16.994 18.099 17.1111 18.3958 17.1111 18.75C17.1111 19.1042 16.994 19.401 16.7597 19.6406C16.5255 19.8802 16.2352 20 15.8889 20Z" fill="#4581FF"/>
</svg>
